<?xml version="1.0" encoding="UTF-8"?>
<svg version="1.2" baseProfile="tiny-ps"
     xmlns="http://www.w3.org/2000/svg"
     viewBox="0 0 256 256">
<title>DNS Tool</title>
<rect width="256" height="256" fill="#0d1117"/>
<circle cx="128" cy="128" r="113" fill="none" stroke="#5b9bd5" stroke-width="12"/>
<circle cx="128" cy="128" r="100" fill="none" stroke="#5b9bd5" stroke-width="3"/>
<g transform="translate(0.000000,256.000000) scale(0.100000,-0.100000)"
fill="#d4a843" stroke="none">
<path d="M1258 2313 c18 -2 45 -2 60 0 15 2 0 4 -33 4 -33 0 -45 -2 -27 -4z"/>
<path d="M1288 2148 c5 -76 -2 -69 71 -75 61 -6 61 -6 61 26 0 35 -15 42 -23
10 -4 -15 -11 -20 -22 -15 -9 3 -28 6 -41 6 -23 0 -24 2 -18 55 6 50 5 55 -13
55 -17 0 -19 -6 -15 -62z"/>
<path d="M1059 2182 c-18 -3 18 -127 36 -127 76 3 116 18 113 43 -4 30 -28 43
-28 14 0 -26 -79 -50 -80 -24 -3 40 -27 97 -41 94z"/>
<path d="M1148 2173 c-32 -5 -43 -63 -13 -63 8 0 15 8 15 19 0 13 9 20 33 24
44 6 47 3 47 -52 0 -48 0 -48 -47 -54 -27 -4 -64 -9 -84 -13 -37 -6 -37 -6
-54 51 -18 64 -19 64 -109 25 -44 -18 -45 -20 -34 -45 15 -33 41 -34 32 -1 -5
21 -1 26 31 36 20 7 37 10 39 8 41 -63 33 -90 -39 -126 -84 -41 -89 -41 -121
13 -31 54 -29 53 -85 14 -64 -46 -65 -46 -44 -69 24 -27 37 -25 29 4 -4 18 1
28 25 45 30 22 30 22 58 -20 27 -41 27 -41 -32 -95 -72 -64 -68 -63 -116 -19
-49 44 -50 44 -94 -10 -38 -45 -40 -70 -10 -81 23 -9 28 1 13 25 -11 18 -10
24 15 48 27 28 27 28 63 -9 37 -36 37 -36 -11 -102 -53 -74 -51 -73 -105 -46
-55 28 -58 27 -86 -36 -26 -59 -24 -67 14 -79 26 -7 30 9 6 23 -12 7 -15 17
-11 33 13 47 21 52 60 40 57 -19 60 -28 29 -115 -29 -84 -35 -86 -128 -60 -20
5 -23 1 -29 -48 -3 -29 -9 -61 -11 -70 -4 -14 1 -18 25 -18 35 0 42 15 10 23
-18 5 -20 10 -14 39 10 47 13 50 48 43 69 -14 66 -8 60 -98 -7 -94 -9 -97 -81
-97 -54 0 -54 0 -47 -62 9 -77 9 -76 40 -70 31 5 33 20 2 24 -19 3 -22 9 -22
43 0 40 0 40 51 43 51 3 51 3 65 -75 7 -43 13 -82 14 -88 0 -5 -22 -17 -49
-26 -58 -18 -62 -25 -42 -70 16 -34 16 -34 10 -1 -5 30 -3 33 32 48 20 9 45
13 56 11 22 -6 22 3 2 68 -95 311 83 689 397 844 504 249 1079 -102 1079 -659
0 -557 -586 -918 -1085 -668 -129 65 -258 193 -329 327 -19 36 -36 59 -36 50
0 -10 11 -37 25 -60 32 -56 33 -52 -25 -89 -60 -38 -58 -29 -13 -90 39 -52 51
-58 71 -38 19 19 14 29 -12 22 -18 -4 -28 1 -45 24 -27 39 -28 37 21 68 41 26
41 26 84 -22 73 -83 74 -88 28 -135 -39 -41 -39 -41 1 -76 62 -54 70 -56 89
-28 14 22 15 25 1 25 -8 0 -15 -4 -15 -10 0 -17 -23 -11 -54 14 -29 24 -29 24
3 65 39 50 29 50 101 -3 33 -24 65 -46 72 -48 9 -3 6 -19 -10 -56 -29 -66 -29
-65 23 -90 54 -26 71 -27 79 -6 9 23 7 34 -4 34 -5 0 -10 -7 -10 -15 0 -19
-23 -19 -60 0 -36 18 -35 16 -9 66 23 46 22 46 127 8 70 -25 66 -13 45 -120
-4 -24 -1 -27 34 -32 80 -14 103 -9 103 18 0 16 -6 25 -15 25 -8 0 -15 -8 -15
-18 0 -16 -5 -18 -37 -13 -38 7 -38 7 -36 50 3 59 6 60 100 54 90 -6 93 -10
93 -99 0 -38 2 -39 80 -24 64 12 63 11 54 44 -8 33 -24 34 -24 1 0 -23 -4 -25
-45 -25 -45 0 -45 0 -45 49 0 49 0 49 68 60 37 7 74 14 84 17 12 4 20 -8 33
-48 23 -71 21 -70 93 -41 69 28 71 31 42 64 -19 24 -19 24 -20 -7 0 -44 -66
-67 -80 -28 -26 67 -26 66 56 107 42 21 77 37 79 35 1 -2 16 -24 34 -51 21
-31 36 -45 45 -40 90 55 108 79 77 107 -21 19 -42 3 -22 -17 13 -13 -24 -57
-48 -57 -13 0 -61 58 -61 73 0 2 30 30 66 62 65 58 65 58 103 21 47 -46 52
-45 95 8 41 50 44 61 16 76 -27 14 -47 2 -24 -14 18 -14 10 -40 -20 -65 -15
-13 -86 28 -86 50 0 8 89 139 95 139 2 0 27 -11 56 -25 60 -28 62 -27 94 66
14 39 14 40 -11 49 -33 13 -34 13 -34 -5 0 -8 7 -15 15 -15 19 0 19 -13 -1
-51 -12 -24 -19 -29 -37 -23 -42 12 -69 35 -62 52 3 9 16 45 28 80 22 63 22
63 83 56 61 -6 61 -6 68 41 10 78 9 85 -19 85 -30 0 -33 -15 -5 -23 16 -4 18
-11 13 -43 -7 -49 -4 -47 -46 -39 -62 12 -66 20 -59 110 7 80 7 80 62 85 62 6
68 15 55 97 -5 38 -10 44 -27 41 -28 -4 -36 -28 -9 -28 22 0 36 -32 29 -67 -2
-14 -14 -19 -55 -21 -52 -3 -52 -3 -58 45 -4 26 -11 63 -16 82 -11 44 -9 46
51 66 57 19 57 16 29 90 -15 41 -25 55 -36 51 -8 -3 -19 -6 -24 -6 -5 0 -9 -7
-9 -15 0 -11 7 -14 23 -10 42 11 65 -69 25 -84 -74 -27 -73 -27 -112 55 -20
42 -36 77 -36 79 0 2 23 17 50 35 60 38 58 29 14 90 -37 51 -51 59 -72 38 -19
-19 -14 -31 12 -24 37 9 77 -48 50 -70 -63 -49 -67 -49 -123 20 -61 76 -60 71
-14 118 37 38 37 38 10 65 -51 54 -83 67 -101 42 -20 -28 -10 -45 14 -24 17
15 20 14 51 -13 32 -29 32 -29 -2 -66 -34 -36 -34 -36 -94 4 -92 63 -88 57
-60 104 34 58 32 63 -27 91 -67 31 -74 31 -82 -1 -9 -34 2 -44 19 -21 14 19
45 17 72 -5 10 -8 -10 -69 -31 -95 -1 -1 -36 11 -77 27 -81 31 -84 37 -66 117
7 37 0 41 -88 46 -48 2 -50 1 -53 -25 -4 -32 23 -40 30 -10 9 32 78 17 78 -17
-1 -73 -29 -85 -152 -65 -38 7 -38 7 -38 65 0 64 -9 68 -112 52z"/>
<path d="M1510 2115 c-15 -64 -14 -66 53 -88 48 -16 48 -16 59 9 14 30 3 44
-15 19 -11 -14 -19 -16 -43 -8 -31 11 -36 36 -20 96 6 20 5 27 -6 27 -10 0
-20 -20 -28 -55z"/>
<path d="M830 2094 c-14 -7 -20 -13 -13 -14 6 0 26 -25 43 -55 31 -54 31 -54
86 -28 56 28 67 50 39 73 -8 7 -15 9 -16 4 -1 -5 -2 -18 -3 -29 0 -12 -12 -23
-29 -29 -33 -12 -52 3 -71 57 -11 33 -13 34 -36 21z"/>
<path d="M1715 2028 c-28 -51 -28 -51 0 -74 55 -44 74 -50 89 -28 18 24 9 41
-12 20 -14 -14 -18 -13 -44 5 -34 25 -35 34 -3 80 22 33 24 49 5 49 -4 0 -19
-23 -35 -52z"/>
<path d="M620 1940 c-33 -33 -60 -65 -60 -70 0 -6 16 8 37 30 36 41 36 41 85
-7 48 -47 48 -47 85 -13 21 19 42 38 46 41 11 9 -14 49 -31 49 -10 0 -10 -5
-1 -21 10 -19 7 -25 -17 -45 -35 -28 -40 -27 -78 19 -29 36 -29 37 -11 57 40
45 1 16 -55 -40z"/>
<path d="M1891 1895 c-44 -43 -44 -43 -6 -89 41 -51 42 -51 68 -32 23 18 22
29 -4 21 -14 -5 -28 0 -45 16 -31 29 -30 37 7 75 48 50 30 57 -20 9z"/>
<path d="M1416 1861 c-4 -6 -4 -22 0 -36 4 -15 2 -25 -5 -25 -6 0 -11 14 -11
30 0 31 -22 42 -37 18 -4 -7 -15 -13 -23 -13 -10 0 -15 -9 -13 -30 0 -16 -1
-24 -4 -17 -8 21 -46 15 -40 -7 3 -12 -1 -18 -12 -17 -10 1 -16 -7 -15 -21 0
-13 -5 -23 -12 -23 -13 0 -13 -107 1 -147 6 -20 4 -23 -21 -23 -28 0 -28 0 -8
-21 12 -11 38 -27 60 -34 21 -8 31 -14 22 -15 -32 0 -71 21 -120 65 -76 68
-96 57 -30 -17 31 -35 32 -39 8 -20 -31 24 -29 25 -105 -32 -84 -63 -228 -258
-235 -318 -1 -13 -8 -33 -14 -45 -7 -12 -12 -32 -12 -45 0 -13 -4 -28 -9 -33
-6 -6 -14 -28 -19 -50 -5 -22 -13 -48 -17 -57 -11 -27 13 -22 65 12 51 34 60
36 60 15 0 -8 -4 -15 -9 -15 -4 0 -20 -28 -35 -62 -25 -56 -26 -63 -11 -77 14
-14 17 -14 25 -1 8 13 10 12 10 -2 0 -28 40 -23 41 5 0 12 5 31 10 42 7 15 8
9 4 -22 -5 -41 -4 -43 20 -43 26 0 26 0 24 100 -2 55 0 103 4 107 4 3 7 -6 7
-20 0 -17 5 -27 14 -27 20 0 31 19 18 32 -6 6 -8 17 -5 24 3 8 0 20 -6 28 -11
13 -5 26 10 26 5 0 6 -6 3 -14 -3 -8 -1 -17 4 -20 6 -3 8 -15 5 -26 -4 -15 0
-20 15 -20 24 0 27 70 4 78 -7 2 -10 8 -6 13 8 14 24 11 24 -5 0 -8 9 -24 19
-37 19 -24 19 -24 25 1 3 14 4 36 3 49 -1 13 3 26 8 28 7 2 9 -12 7 -35 -3
-26 1 -42 12 -51 22 -19 41 30 27 71 -8 24 -7 30 11 39 30 16 47 -4 25 -29
-18 -20 -24 -92 -7 -92 17 0 42 62 36 90 -6 34 1 42 24 28 14 -9 15 -16 7 -39
-8 -20 -7 -35 2 -56 26 -58 52 20 26 80 -6 15 -4 17 19 11 17 -4 26 -2 26 6 0
6 5 8 10 5 6 -4 3 -16 -10 -32 -21 -27 -27 -77 -11 -88 12 -7 41 33 41 55 0
13 9 16 45 14 39 -3 45 0 45 17 0 10 -5 19 -11 19 -6 0 -9 7 -6 15 4 8 2 17
-3 20 -13 8 -13 35 0 35 6 0 10 -9 10 -19 0 -11 5 -23 10 -26 6 -3 10 -15 10
-26 0 -12 7 -19 20 -19 11 0 20 5 20 10 0 6 5 10 11 10 18 0 101 88 94 100 -9
15 -35 12 -35 -5 0 -8 -4 -15 -9 -15 -5 0 -8 8 -7 18 1 11 -6 17 -19 17 -21 0
-55 28 -55 45 0 19 18 10 23 -11 4 -16 11 -19 26 -14 13 4 21 2 21 -5 0 -6 8
-10 18 -9 9 1 25 -1 35 -6 21 -9 43 8 32 25 -4 6 -16 10 -26 7 -25 -7 -24 15
1 31 17 10 20 10 20 -4 0 -9 6 -14 12 -12 15 5 19 63 7 95 -11 30 -32 30 -24
1 5 -19 2 -17 -20 10 -15 18 -31 30 -36 27 -5 -4 -9 -1 -9 4 0 17 20 13 80
-15 69 -32 89 -50 83 -74 -6 -21 41 -110 57 -110 17 0 11 44 -11 80 -16 26
-17 31 -5 21 10 -8 24 -30 32 -50 16 -38 30 -51 55 -51 22 0 32 27 19 51 -8
15 -7 19 5 19 8 0 15 5 15 10 0 15 -62 50 -89 50 -23 0 -23 0 -6 -27 12 -20 3
-14 -31 18 -27 26 -71 59 -99 73 -27 15 -39 24 -25 20 14 -4 30 -11 37 -16 37
-30 131 45 140 111 4 25 11 41 19 41 16 0 19 16 5 24 -5 4 -12 0 -14 -6 -4 -9
-6 -7 -6 3 -1 9 6 22 14 29 18 15 9 33 -14 28 -9 -3 -26 8 -41 26 -14 17 -19
27 -12 23 6 -5 12 -4 12 2 0 5 -10 11 -22 13 -23 3 -23 3 0 23 12 11 22 25 22
32 0 18 -29 16 -36 -2 -7 -17 -34 -21 -34 -5 0 6 7 10 15 10 8 0 15 9 15 20 0
23 -28 27 -36 5 -8 -20 -24 -19 -39 2 -13 18 -35 10 -35 -13 0 -8 9 -14 20
-14 11 0 20 -4 20 -8 0 -5 -8 -9 -17 -9 -24 0 -44 28 -32 43 6 7 4 16 -5 23
-8 7 -12 19 -10 26 9 22 -5 38 -21 25 -9 -8 -15 -8 -20 0 -16 25 -38 10 -31
-22 5 -26 4 -30 -6 -20 -7 7 -13 20 -13 30 0 9 -9 18 -19 20 -16 4 -18 0 -12
-29 4 -21 3 -30 -3 -24 -5 6 -11 19 -13 29 -3 22 -23 32 -32 17z m27 -122 c91
-47 66 -181 -36 -193 -53 -6 -107 44 -107 99 0 72 82 125 143 94z m251 -80
c24 -11 56 -62 56 -89 0 -75 -99 -127 -162 -86 -105 69 -9 227 106 175z m-298
-180 c3 -5 -13 -9 -35 -9 -29 0 -39 4 -35 13 5 15 60 11 70 -4z m-253 -83 c46
-36 118 -62 190 -71 l58 -7 -63 -45 c-55 -39 -152 -95 -138 -80 3 3 41 29 85
58 80 53 80 53 29 62 -48 9 -53 8 -100 -25 -69 -49 -104 -71 -104 -65 0 3 22
19 49 36 83 54 90 67 47 87 -35 17 -37 17 -58 -3 -13 -11 -39 -30 -58 -43 -27
-18 -23 -12 15 23 50 45 50 45 25 71 -26 26 -26 26 -70 -11 -45 -37 -45 -37
-3 8 33 34 41 50 37 69 -4 20 -2 19 9 -6 8 -17 31 -44 50 -58z m272 43 c33 -7
30 -8 -20 -3 -33 2 -74 9 -90 14 -36 11 42 3 110 -11z m99 -29 c8 -18 10 -30
4 -30 -6 0 -8 -10 -5 -22 4 -12 1 -28 -4 -35 -15 -17 -1 -36 22 -30 21 6 25
-3 8 -20 -21 -21 -71 45 -53 71 16 24 19 76 3 76 -5 0 -7 5 -4 10 9 15 12 13
29 -20z m-459 -200 c8 0 15 -4 15 -8 0 -14 65 -29 88 -21 16 6 20 5 15 -7 -16
-42 -203 45 -203 95 0 6 16 -5 35 -24 19 -19 41 -35 50 -35z m397 8 c15 -23
14 -48 -2 -48 -4 0 -6 9 -3 20 3 12 -1 22 -11 26 -9 3 -16 10 -16 15 0 17 18
9 32 -13z m-89 -46 c6 -32 0 -43 -8 -16 -4 10 -11 27 -16 36 -6 13 -5 16 5 12
8 -3 16 -17 19 -32z m-46 -7 c6 -14 7 -25 3 -25 -10 0 -24 19 -26 38 -4 21 10
13 23 -13z m-407 -223 c-8 -14 -9 -12 -10 11 0 15 -6 27 -12 27 -9 0 -8 3 2
10 19 12 34 -24 20 -48z"/>
<path d="M1364 1726 c-59 -26 -68 -106 -17 -146 68 -53 160 10 139 95 -11 45
-74 71 -122 51z m90 -49 c19 -26 19 -30 5 -55 -34 -61 -119 -47 -119 20 0 69
72 91 114 35z"/>
<path d="M1366 1684 c-34 -33 -13 -84 34 -84 34 0 50 17 50 52 0 43 -53 64
-84 32z"/>
<path d="M1605 1648 c-61 -33 -64 -123 -4 -153 42 -22 67 -18 100 14 69 70
-11 186 -96 139z m88 -40 c51 -59 -35 -136 -93 -83 -29 26 -26 69 7 94 30 24
58 20 86 -11z"/>
<path d="M1606 1604 c-33 -32 -8 -84 39 -84 15 0 31 10 41 25 33 50 -38 102
-80 59z"/>
<path d="M1607 1843 c-13 -12 -7 -33 8 -33 8 0 24 -6 35 -12 23 -15 44 0 30
21 -7 12 -12 12 -23 3 -12 -10 -16 -9 -20 8 -5 20 -18 26 -30 13z"/>
<path d="M620 1812 c0 -4 5 -13 11 -19 11 -11 -22 -73 -38 -73 -16 0 -83 46
-86 59 -2 11 -9 4 -21 -19 -10 -19 -13 -30 -6 -23 10 9 25 5 67 -19 30 -17 55
-29 57 -27 13 16 56 91 56 98 0 6 -9 15 -20 21 -11 6 -20 7 -20 2z"/>
<path d="M943 1800 c-17 -10 -37 -28 -43 -39 -15 -30 -56 -37 -80 -16 -18 16
-20 16 -20 2 0 -9 5 -19 11 -23 19 -11 1 -84 -31 -128 -37 -50 -39 -94 -6
-167 14 -30 25 -46 25 -36 1 10 5 16 9 13 11 -6 52 91 52 122 0 12 -7 39 -15
59 -10 23 -13 49 -9 67 7 31 7 31 35 -4 17 -19 29 -46 29 -62 0 -55 75 -74
101 -26 24 45 -24 104 -66 80 -14 -7 -24 -3 -46 23 -37 42 -36 49 4 40 103
-22 149 -18 210 21 69 45 69 46 8 73 -62 26 -126 27 -168 1z"/>
<path d="M2027 1719 c-57 -29 -57 -29 -31 -82 15 -28 28 -54 29 -55 7 -7 45
10 45 19 0 6 -9 8 -20 4 -15 -5 -22 1 -35 31 -18 43 -17 46 35 69 22 10 40 24
40 32 0 16 6 18 -63 -18z"/>
<path d="M1761 1726 c-12 -14 -5 -26 16 -26 15 0 18 26 4 34 -5 3 -14 0 -20
-8z"/>
<path d="M1780 1670 c0 -11 7 -20 15 -20 8 0 15 9 15 20 0 11 -7 20 -15 20 -8
0 -15 -9 -15 -20z"/>
<path d="M516 1612 c20 -15 21 -20 9 -52 -13 -39 -29 -41 -94 -14 -40 17 -37
18 -45 -26 -5 -28 -4 -31 4 -12 5 12 11 22 12 22 2 0 28 -7 58 -15 62 -16 62
-17 83 47 15 45 15 48 -3 58 -31 17 -47 11 -24 -8z"/>
<path d="M2100 1507 c-25 -7 -44 -14 -44 -17 1 -3 5 -29 9 -57 6 -47 9 -53 31
-53 13 0 24 5 24 10 0 6 -9 10 -19 10 -14 0 -20 9 -23 36 -4 36 28 64 72 64 5
0 10 5 10 10 0 12 -2 12 -60 -3z"/>
<path d="M445 1410 c3 -5 13 -10 21 -10 10 0 14 -13 14 -46 0 -46 0 -46 -47
-40 -27 4 -56 9 -65 12 -14 4 -18 0 -18 -18 0 -23 2 -23 64 -18 77 6 72 1 80
73 6 57 6 57 -25 57 -17 0 -28 -4 -24 -10z"/>
<path d="M1710 1390 c0 -25 91 -42 105 -20 3 6 -6 15 -20 20 -34 13 -85 13
-85 0z"/>
<path d="M2313 1300 c0 -47 2 -66 4 -42 2 23 2 61 0 85 -2 23 -4 4 -4 -43z"/>
<path d="M243 1275 c0 -33 2 -45 4 -27 2 18 2 45 0 60 -2 15 -4 0 -4 -33z"/>
<path d="M2076 1259 c-14 -70 -8 -99 19 -99 14 0 25 5 25 10 0 6 -7 10 -16 10
-12 0 -14 9 -12 43 3 42 3 42 46 45 24 2 50 -2 58 -9 11 -9 14 -8 14 8 0 16
-8 19 -64 21 -63 3 -63 3 -70 -29z"/>
<path d="M357 1203 c8 -50 13 -55 13 -10 0 20 -4 38 -9 42 -6 3 -7 -10 -4 -32z"/>
<path d="M1610 1206 c0 -8 7 -16 15 -20 8 -3 15 -16 15 -30 0 -13 -7 -26 -15
-30 -15 -5 -22 -36 -7 -35 24 1 173 57 166 61 -11 7 -164 68 -170 68 -2 0 -4
-6 -4 -14z m84 -42 c18 -7 12 -24 -10 -24 -8 0 -14 7 -14 15 0 17 2 18 24 9z"/>
<path d="M443 1198 c2 -7 9 -14 15 -14 7 -1 17 -2 22 -3 6 0 10 -18 10 -40 0
-38 -1 -39 -46 -50 -25 -6 -50 -8 -56 -5 -8 5 -9 1 -5 -10 4 -10 7 -19 7 -20
0 -2 27 6 61 17 61 19 61 19 54 64 -4 25 -9 52 -12 59 -7 18 -56 19 -50 2z"/>
<path d="M1658 1051 c-25 -20 -49 -39 -53 -43 -3 -3 17 -24 46 -46 52 -39 52
-39 100 -3 60 44 60 47 1 92 -47 35 -47 35 -94 0z m85 -25 c29 -23 29 -23 -8
-45 -43 -25 -37 -25 -63 -2 -29 24 -28 33 6 53 34 22 31 22 65 -6z"/>
<path d="M2039 1053 c-5 -16 -15 -41 -21 -56 -9 -23 -8 -31 3 -38 31 -19 52
-6 25 15 -13 9 -13 15 -1 44 16 36 36 40 90 18 27 -12 34 -12 39 -1 3 9 -14
18 -53 29 -73 20 -70 21 -82 -11z"/>
<path d="M500 990 c-15 -10 -8 -14 22 -11 10 1 24 -11 33 -29 19 -38 10 -54
-45 -79 -45 -21 -44 -36 7 -114 79 -120 257 -276 297 -261 23 9 19 26 -4 19
-20 -6 -109 54 -154 104 -20 22 -20 22 24 65 43 44 43 44 5 90 -42 51 -39 50
-66 36 -26 -14 -25 -33 2 -25 22 7 69 -27 69 -51 0 -7 -17 -27 -37 -44 -42
-34 -57 -25 -134 87 -38 54 -37 57 19 89 26 15 48 29 50 30 2 1 -8 25 -22 53
-27 51 -38 59 -66 41z"/>
<path d="M1075 963 c9 -39 6 -98 -8 -163 -12 -49 -15 -55 -37 -53 -50 4 -100
-8 -100 -25 0 -8 3 -12 7 -9 3 4 12 2 18 -3 24 -20 272 -25 293 -7 10 10 21
14 25 11 30 -30 186 -4 187 32 0 20 -65 33 -109 21 -53 -14 -59 -7 -69 76 -7
52 -5 70 5 78 7 7 13 25 13 41 0 24 -3 28 -13 19 -10 -8 -17 -7 -25 1 -8 8
-13 7 -18 -6 -6 -15 -7 -15 -20 1 -12 16 -13 15 -14 -14 0 -17 5 -35 10 -38
19 -12 12 -165 -7 -165 -10 0 -36 -3 -57 -7 -39 -6 -39 -6 -31 58 4 35 8 74 9
86 0 11 4 19 8 17 10 -6 28 30 28 55 0 23 -15 28 -24 9 -5 -10 -7 -10 -12 0
-8 18 -24 15 -24 -5 -1 -17 -1 -17 -11 0 -16 27 -32 21 -24 -10z"/>
<path d="M2130 928 c-44 -104 -43 -104 -107 -67 -45 26 -57 29 -64 18 -4 -8
-19 -30 -33 -49 -26 -34 -26 -34 -6 -54 22 -22 40 -15 21 8 -14 16 -4 43 23
65 17 15 96 -24 96 -47 0 -14 -108 -162 -118 -162 -3 0 -27 20 -52 44 -45 45
-45 45 -93 3 -46 -41 -47 -43 -32 -65 19 -26 40 -20 25 8 -8 15 -4 23 21 41
31 22 31 22 67 -14 43 -43 35 -57 -72 -128 -59 -40 -59 -40 -79 -7 -52 86 -40
80 -99 54 -29 -13 -53 -29 -52 -35 1 -6 2 -18 3 -26 0 -8 8 -15 17 -15 11 0
13 6 9 19 -10 32 53 61 73 35 55 -74 50 -83 -71 -129 -81 -30 -81 -30 -102 41
-18 61 -7 57 -105 38 -23 -4 -30 -11 -30 -29 0 -31 18 -42 22 -13 3 20 9 23
43 23 38 0 40 -2 51 -42 16 -55 7 -61 -115 -70 -90 -6 -90 -6 -93 58 -3 64 -3
64 -60 67 -59 3 -88 -22 -59 -51 9 -9 13 -6 17 11 5 18 13 22 45 22 39 0 39 0
39 -55 0 -55 0 -55 -38 -55 -48 0 -154 19 -165 30 -7 6 3 62 19 104 3 9 -10
19 -38 29 -24 8 -51 18 -60 22 -13 5 -20 1 -27 -16 -12 -33 -2 -45 15 -20 13
18 18 19 42 9 42 -18 44 -22 31 -72 -14 -55 -28 -58 -108 -21 -30 14 -56 23
-59 20 -3 -2 19 -15 49 -29 407 -179 881 -38 1133 339 51 75 112 202 103 211
-2 3 -14 -19 -27 -48z"/>
<path d="M498 929 c-27 -15 -21 -29 7 -16 14 7 25 15 25 20 0 10 -11 8 -32 -4z"/>
<path d="M1650 860 c-44 -39 -51 -50 -38 -55 11 -4 27 3 45 19 28 26 28 26 31
1 4 -31 24 -28 32 5 5 21 6 21 19 6 19 -23 49 -38 55 -28 3 5 -16 29 -42 55
-47 45 -47 45 -102 -3z"/>
<path d="M772 658 c-7 -7 -12 -19 -12 -27 0 -12 3 -12 12 -3 17 17 31 15 61
-8 24 -19 25 -21 10 -51 -21 -42 -8 -48 16 -8 27 44 28 40 -24 77 -53 37 -48
35 -63 20z"/>
<path d="M1218 243 c23 -2 61 -2 85 0 23 2 4 4 -43 4 -47 0 -66 -2 -42 -4z"/>
</g>
</svg>
