<svg xmlns="http://www.w3.org/2000/svg" viewBox="0 0 32 32">
  <defs>
    <linearGradient id="g" x1="0" y1="0" x2="1" y2="1">
      <stop offset="0%" stop-color="#f0ddb3"/>
      <stop offset="50%" stop-color="#d4a843"/>
      <stop offset="100%" stop-color="#a07830"/>
    </linearGradient>
  </defs>
  <circle cx="16" cy="16" r="15" fill="#0d1117" stroke="url(#g)" stroke-width="1.5"/>
  <circle cx="16" cy="16" r="12.5" fill="none" stroke="url(#g)" stroke-width="0.8" opacity="0.5"/>
  <circle cx="12.5" cy="12" r="3.5" fill="none" stroke="url(#g)" stroke-width="1.3"/>
  <circle cx="19.5" cy="12" r="3.5" fill="none" stroke="url(#g)" stroke-width="1.3"/>
  <circle cx="12.5" cy="12" r="1.8" fill="url(#g)"/>
  <circle cx="19.5" cy="12" r="1.8" fill="url(#g)"/>
  <path d="M14.5 16.5 L16 18.5 L17.5 16.5" fill="none" stroke="url(#g)" stroke-width="1.1" stroke-linecap="round" stroke-linejoin="round"/>
  <path d="M10 21 L12 19.5 L14 21 L16 19.5 L18 21 L20 19.5 L22 21" fill="none" stroke="url(#g)" stroke-width="0.9" stroke-linecap="round" stroke-linejoin="round" opacity="0.7"/>
  <path d="M9 8 L11 5.5 L13 8" fill="none" stroke="url(#g)" stroke-width="0.9" stroke-linecap="round" stroke-linejoin="round" opacity="0.8"/>
  <path d="M19 8 L21 5.5 L23 8" fill="none" stroke="url(#g)" stroke-width="0.9" stroke-linecap="round" stroke-linejoin="round" opacity="0.8"/>
  <path d="M7.5 13 L9 14.5" fill="none" stroke="url(#g)" stroke-width="0.8" stroke-linecap="round" opacity="0.6"/>
  <path d="M24.5 13 L23 14.5" fill="none" stroke="url(#g)" stroke-width="0.8" stroke-linecap="round" opacity="0.6"/>
  <path d="M11 23 L13 25 L16 23 L19 25 L21 23" fill="none" stroke="url(#g)" stroke-width="0.7" stroke-linecap="round" opacity="0.5"/>
</svg>
